/* XPM */
static char * stick_pressed_xpm[] = {
"25 25 78 1",
" 	c None",
".	c #54534D",
"+	c #3C3B37",
"@	c #4D3F3A",
"#	c #864B43",
"$	c #BC554A",
"%	c #D45A4E",
"&	c #403B37",
"*	c #9F4E45",
"=	c #ED6052",
"-	c #F26153",
";	c #EB5F52",
">	c #9E4E45",
",	c #433C38",
"'	c #C5574C",
")	c #ED5E50",
"!	c #C1554A",
"~	c #9A4E45",
"{	c #944D44",
"]	c #C1564B",
"^	c #423C37",
"/	c #A95147",
"(	c #E75F53",
"_	c #A25047",
":	c #904D45",
"<	c #A25046",
"[	c #E85E51",
"}	c #A75147",
"|	c #5D413B",
"1	c #F06052",
"2	c #EF6154",
"3	c #A05046",
"4	c #8C4B43",
"5	c #A15046",
"6	c #EF6052",
"7	c #5B413C",
"8	c #B05348",
"9	c #CA594E",
"0	c #894B43",
"a	c #AF5348",
"b	c #E75E51",
"c	c #A65148",
"d	c #854B43",
"e	c #A75248",
"f	c #E55E51",
"g	c #954F46",
"h	c #814B43",
"i	c #924D45",
"j	c #7E4942",
"k	c #E65E51",
"l	c #9F5147",
"m	c #7A4942",
"n	c #A05148",
"o	c #C2574D",
"p	c #764942",
"q	c #5C413C",
"r	c #EE6154",
"s	c #8C4C44",
"t	c #724740",
"u	c #8D4D44",
"v	c #A85147",
"w	c #E45E50",
"x	c #874B43",
"y	c #6E4741",
"z	c #884C43",
"A	c #413B37",
"B	c #EC5D50",
"C	c #AC5349",
"D	c #744942",
"E	c #6A453F",
"F	c #EC5F52",
"G	c #ED5F52",
"H	c #E86053",
"I	c #9D4F47",
"J	c #3F3C38",
"K	c #4C3E39",
"L	c #854A42",
"M	c #BB564B",
".........................",
"+++++++++++++++++++++++++",
"+++++++++++++++++++++++++",
"+++++++++++++++++++++++++",
"++++++++@#$%%$#@+++++++++",
"++++++&*=--;;--=>&+++++++",
"+++++,'-)!~{{~]=-'^++++++",
"+++++/-(_::::::<[-}++++++",
"++++|123444444445617+++++",
"++++8-900000000009-a+++++",
"++++b-cdddddddddde-f+++++",
"++++--ghhhhhhhhhhg--+++++",
"++++--ijjjjjjjjjji--+++++",
"++++k-lmmmmmmmmmmn-f+++++",
"++++a-oppppppppppo-a+++++",
"++++q1rsttttttttu267+++++",
"+++++v-wxyyyyyyzw-}++++++",
"+++++A'-BCDEEDCF-'&++++++",
"++++++&>G--HH--;IJ+++++++",
"++++++++KLM%%MLK+++++++++",
"+++++++++++++++++++++++++",
"+++++++++++++++++++++++++",
"+++++++++++++++++++++++++",
"+++++++++++++++++++++++++",
"+++++++++++++++++++++++++"};
