/* XPM */
static char * stick_xpm[] = {
"25 25 60 1",
" 	c None",
".	c #54534D",
"+	c #3C3B37",
"@	c #4D4C48",
"#	c #82817F",
"$	c #B4B3B2",
"%	c #CACAC9",
"&	c #4C4B47",
"*	c #403F3B",
"=	c #989795",
"-	c #E2E1E1",
";	c #E6E6E6",
">	c #DADADA",
",	c #979795",
"'	c #3F3E3A",
")	c #42413D",
"!	c #BCBCBB",
"~	c #DDDDDD",
"{	c #8D8C8A",
"]	c #474642",
"^	c #474643",
"/	c #8E8D8B",
"(	c #DEDEDE",
"_	c #41403D",
":	c #A2A2A0",
"<	c #D3D3D2",
"[	c #5A5956",
"}	c #D4D3D3",
"|	c #A0A09E",
"1	c #5A5A56",
"2	c #E4E4E4",
"3	c #E1E1E1",
"4	c #5D5C59",
"5	c #5E5D5A",
"6	c #595855",
"7	c #A8A8A6",
"8	c #A5A4A3",
"9	c #A5A5A4",
"0	c #A8A7A6",
"a	c #DCDBDB",
"b	c #6F6F6C",
"c	c #71706D",
"d	c #DBDBDB",
"e	c #72716E",
"f	c #DAD9D9",
"g	c #A5A5A3",
"h	c #605F5C",
"i	c #E4E3E3",
"j	c #A1A09F",
"k	c #5B5A57",
"l	c #41403C",
"m	c #BCBBBA",
"n	c #484743",
"o	c #8F8F8D",
"p	c #DFDFDF",
"q	c #E0DFDF",
"r	c #4B4A47",
"s	c #80807D",
"t	c #B3B3B1",
"u	c #CAC9C9",
".........................",
"+++++++++++++++++++++++++",
"+++++++++++++++++++++++++",
"+++++++++++++++++++++++++",
"++++++++@#$%%$#&+++++++++",
"++++++*=-;;>>;;-,'+++++++",
"+++++)!;~{]++^/(;!_++++++",
"+++++:;<[++++++[};|++++++",
"++++1234++++++++5-26+++++",
"++++7;8++++++++++9;0+++++",
"++++a;b++++++++++c;>+++++",
"++++;;[++++++++++[;;+++++",
"++++;;[++++++++++[;;+++++",
"++++d;b++++++++++e;f+++++",
"++++0;9++++++++++g;0+++++",
"++++[235++++++++h-i6+++++",
"+++++j;}1++++++k};|++++++",
"+++++lm;(/n++nop;m'++++++",
"++++++',3;;>>;;q,'+++++++",
"++++++++rstuutsr+++++++++",
"+++++++++++++++++++++++++",
"+++++++++++++++++++++++++",
"+++++++++++++++++++++++++",
"+++++++++++++++++++++++++",
"+++++++++++++++++++++++++"};
